{
  "accessors": [
    {
      "bufferView": 2,
      "componentType": 5126,
      "count": 65534,
      "max": [
        194.53390502929688,
        253.873291015625,
        237.74398803710938
      ],
      "min": [
        -205.6605224609375,
        -69.35546875,
        -115.18540954589844
      ],
      "type": "VEC3"
    },
    {
      "bufferView": 2,
      "byteOffset": 786408,
      "componentType": 5126,
      "count": 65534,
      "max": [
        1.0,
        1.0,
        0.9999963641166687
      ],
      "min": [
        -0.9999542236328125,
        -1.0,
        -1.0
      ],
      "type": "VEC3"
    },
    {
      "bufferView": 1,
      "componentType": 5126,
      "count": 65534,
      "max": [
        1.0013724565505981,
        0.9986284375190735
      ],
      "min": [
        -0.0003505842760205269,
        0.0027949288487434387
      ],
      "type": "VEC2"
    },
    {
      "bufferView": 0,
      "componentType": 5125,
      "count": 151302,
      "type": "SCALAR"
    },
    {
      "bufferView": 2,
      "byteOffset": 1572816,
      "componentType": 5126,
      "count": 53370,
      "max": [
        194.53390502929688,
        250.65048217773438,
        237.74398803710938
      ],
      "min": [
        -205.6605224609375,
        -71.2849349975586,
        -110.70011901855469
      ],
      "type": "VEC3"
    },
    {
      "bufferView": 2,
      "byteOffset": 2213256,
      "componentType": 5126,
      "count": 53370,
      "max": [
        0.9999988675117493,
        1.0,
        0.9999957084655762
      ],
      "min": [
        -0.9999539256095886,
        -1.0,
        -0.9999951124191284
      ],
      "type": "VEC3"
    },
    {
      "bufferView": 1,
      "byteOffset": 524272,
      "componentType": 5126,
      "count": 53370,
      "max": [
        0.9952642917633057,
        0.9986284375190735
      ],
      "min": [
        -0.0003505842760205269,
        0.0
      ],
      "type": "VEC2"
    },
    {
      "bufferView": 0,
      "byteOffset": 605208,
      "componentType": 5125,
      "count": 123759,
      "type": "SCALAR"
    },
    {
      "bufferView": 2,
      "byteOffset": 2853696,
      "componentType": 5126,
      "count": 6114,
      "max": [
        198.3536376953125,
        17.51337242126465,
        284.74310302734375
      ],
      "min": [
        -208.3618621826172,
        -76.4189224243164,
        -189.84640502929688
      ],
      "type": "VEC3"
    },
    {
      "bufferView": 2,
      "byteOffset": 2927064,
      "componentType": 5126,
      "count": 6114,
      "max": [
        0.9991973042488098,
        0.9999997615814209,
        0.9993919134140015
      ],
      "min": [
        -0.9998654723167419,
        -1.0,
        -0.9999628067016602
      ],
      "type": "VEC3"
    },
    {
      "bufferView": 1,
      "byteOffset": 951232,
      "componentType": 5126,
      "count": 6114,
      "max": [
        0.9860631227493286,
        0.992212176322937
      ],
      "min": [
        0.024524569511413574,
        0.00780577352270484
      ],
      "type": "VEC2"
    },
    {
      "bufferView": 0,
      "byteOffset": 1100244,
      "componentType": 5125,
      "count": 17124,
      "type": "SCALAR"
    },
    {
      "bufferView": 2,
      "byteOffset": 3000432,
      "componentType": 5126,
      "count": 75,
      "max": [
        128.39988708496094,
        0.5,
        123.22796630859375
      ],
      "min": [
        79.68749237060547,
        -56.65910339355469,
        -35.42369079589844
      ],
      "type": "VEC3"
    },
    {
      "bufferView": 2,
      "byteOffset": 3001332,
      "componentType": 5126,
      "count": 75,
      "max": [
        1.0,
        1.0,
        1.0
      ],
      "min": [
        -1.0,
        -1.0,
        -1.0
      ],
      "type": "VEC3"
    },
    {
      "bufferView": 1,
      "byteOffset": 1000144,
      "componentType": 5126,
      "count": 75,
      "max": [
        0.875,
        1.0
      ],
      "min": [
        0.006572648882865906,
        0.0
      ],
      "type": "VEC2"
    },
    {
      "bufferView": 0,
      "byteOffset": 1168740,
      "componentType": 5125,
      "count": 123,
      "type": "SCALAR"
    }
  ],
  "asset": {
    "extras": {
      "author": "Eric Schmitz (https://sketchfab.com/ericschmitz)",
      "license": "CC-BY-4.0 (http://creativecommons.org/licenses/by/4.0/)",
      "source": "https://sketchfab.com/3d-models/traditional-chinese-lamp-workshop-7ca57d6971de4594963a9906e4fc7e66",
      "title": "Traditional chinese lamp workshop"
    },
    "generator": "Sketchfab-13.46.0",
    "version": "2.0"
  },
  "bufferViews": [
    {
      "buffer": 0,
      "byteLength": 1169232,
      "name": "floatBufferViews",
      "target": 34963
    },
    {
      "buffer": 0,
      "byteLength": 1000744,
      "byteOffset": 1169232,
      "byteStride": 8,
      "name": "floatBufferViews",
      "target": 34962
    },
    {
      "buffer": 0,
      "byteLength": 3002232,
      "byteOffset": 2169976,
      "byteStride": 12,
      "name": "floatBufferViews",
      "target": 34962
    }
  ],
  "buffers": [
    {
      "byteLength": 5172208,
      "uri": "scene.bin"
    }
  ],
  "extensionsRequired": [
    "KHR_materials_pbrSpecularGlossiness"
  ],
  "extensionsUsed": [
    "KHR_materials_pbrSpecularGlossiness"
  ],
  "images": [
    {
      "uri": "textures/house_texture_diffuse.jpeg"
    },
    {
      "uri": "textures/groundplane_texture_diffuse.jpeg"
    }
  ],
  "materials": [
    {
      "doubleSided": true,
      "extensions": {
        "KHR_materials_pbrSpecularGlossiness": {
          "diffuseFactor": [
            1.0,
            1.0,
            1.0,
            1.0
          ],
          "diffuseTexture": {
            "index": 0
          },
          "glossinessFactor": 0.0,
          "specularFactor": [
            0.0,
            0.0,
            0.0
          ]
        }
      },
      "name": "house_texture"
    },
    {
      "doubleSided": true,
      "extensions": {
        "KHR_materials_pbrSpecularGlossiness": {
          "diffuseFactor": [
            1.0,
            1.0,
            1.0,
            1.0
          ],
          "diffuseTexture": {
            "index": 1
          },
          "glossinessFactor": 0.0,
          "specularFactor": [
            0.0,
            0.0,
            0.0
          ]
        }
      },
      "name": "groundplane_texture"
    }
  ],
  "meshes": [
    {
      "name": "pTorus8_house_texture_0",
      "primitives": [
        {
          "attributes": {
            "NORMAL": 1,
            "POSITION": 0,
            "TEXCOORD_0": 2
          },
          "indices": 3,
          "material": 0,
          "mode": 4
        }
      ]
    },
    {
      "name": "pTorus8_house_texture_0",
      "primitives": [
        {
          "attributes": {
            "NORMAL": 5,
            "POSITION": 4,
            "TEXCOORD_0": 6
          },
          "indices": 7,
          "material": 0,
          "mode": 4
        }
      ]
    },
    {
      "name": "pPlane122_groundplane_texture_0",
      "primitives": [
        {
          "attributes": {
            "NORMAL": 9,
            "POSITION": 8,
            "TEXCOORD_0": 10
          },
          "indices": 11,
          "material": 1,
          "mode": 4
        }
      ]
    },
    {
      "name": "pPlane122_house_texture_0",
      "primitives": [
        {
          "attributes": {
            "NORMAL": 13,
            "POSITION": 12,
            "TEXCOORD_0": 14
          },
          "indices": 15,
          "material": 0,
          "mode": 4
        }
      ]
    }
  ],
  "nodes": [
    {
      "children": [
        1
      ],
      "matrix": [
        1.0,
        0.0,
        0.0,
        0.0,
        0.0,
        2.220446049250313e-16,
        -1.0,
        0.0,
        0.0,
        1.0,
        2.220446049250313e-16,
        0.0,
        0.0,
        0.0,
        0.0,
        1.0
      ],
      "name": "Sketchfab_model"
    },
    {
      "children": [
        2
      ],
      "matrix": [
        0.009999999776482582,
        0.0,
        0.0,
        0.0,
        0.0,
        0.0,
        0.009999999776482582,
        0.0,
        0.0,
        -0.009999999776482582,
        0.0,
        0.0,
        0.0,
        0.0,
        0.0,
        1.0
      ],
      "name": "239c203f01164e4fb8f3167681d63c83.fbx"
    },
    {
      "children": [
        3,
        6
      ],
      "name": "RootNode"
    },
    {
      "children": [
        4,
        5
      ],
      "name": "pTorus8"
    },
    {
      "mesh": 0,
      "name": "pTorus8_house_texture_0"
    },
    {
      "mesh": 1,
      "name": "pTorus8_house_texture_0"
    },
    {
      "children": [
        7,
        8
      ],
      "name": "pPlane122"
    },
    {
      "mesh": 2,
      "name": "pPlane122_groundplane_texture_0"
    },
    {
      "mesh": 3,
      "name": "pPlane122_house_texture_0"
    }
  ],
  "samplers": [
    {
      "magFilter": 9729,
      "minFilter": 9987,
      "wrapS": 10497,
      "wrapT": 10497
    }
  ],
  "scene": 0,
  "scenes": [
    {
      "name": "Sketchfab_Scene",
      "nodes": [
        0
      ]
    }
  ],
  "textures": [
    {
      "sampler": 0,
      "source": 0
    },
    {
      "sampler": 0,
      "source": 1
    }
  ]
}
